<?xml version="1.0" standalone="no"?>
<!DOCTYPE svg PUBLIC "-//W3C//DTD SVG 20010904//EN"
 "http://www.w3.org/TR/2001/REC-SVG-20010904/DTD/svg10.dtd">
<svg version="1.0" xmlns="http://www.w3.org/2000/svg"
 width="849.000000pt" height="1024.000000pt" viewBox="0 0 849.000000 1024.000000"
 preserveAspectRatio="xMidYMid meet">
<metadata>
Created by potrace 1.16, written by Peter Selinger 2001-2019
</metadata>
<g transform="translate(0.000000,1024.000000) scale(0.100000,-0.100000)"
fill="#000000" stroke="none">
<path d="M4080 10140 c-98 -21 -138 -35 -162 -57 -23 -21 -23 -28 2 -53 12
-12 15 -20 8 -20 -7 0 -70 -11 -141 -24 -156 -30 -229 -62 -322 -144 -64 -58
-134 -151 -135 -179 0 -10 45 -13 194 -13 221 0 358 -11 500 -41 141 -29 170
-43 386 -181 203 -129 294 -203 288 -234 -5 -30 -22 -26 -84 22 -127 99 -350
187 -559 221 -126 21 -479 23 -615 5 -307 -43 -504 -83 -571 -117 -65 -34 -78
-99 -29 -145 36 -33 180 -110 208 -110 12 0 28 13 40 34 25 43 88 89 150 112
26 10 58 28 73 41 l25 23 375 0 376 0 61 -25 c37 -15 81 -25 110 -25 39 0 58
-7 93 -31 63 -45 77 -67 84 -129 15 -122 53 -200 98 -200 12 0 57 20 99 45 64
37 81 43 102 36 34 -14 40 -27 47 -108 5 -60 12 -82 47 -141 48 -81 52 -105
18 -127 -41 -27 -207 -56 -304 -53 l-88 3 -42 -36 c-24 -21 -67 -43 -102 -54
-53 -16 -70 -28 -138 -100 -101 -105 -126 -156 -152 -315 -34 -213 -49 -239
-172 -298 -65 -31 -94 -52 -131 -96 -55 -64 -69 -67 -142 -32 -27 14 -66 27
-86 30 -20 4 -44 15 -54 26 -17 18 -17 33 0 330 10 171 15 313 12 317 -4 3
-72 -34 -153 -82 -211 -126 -310 -234 -382 -416 -38 -95 -49 -153 -62 -319
-22 -278 -54 -435 -146 -715 -90 -270 -117 -321 -286 -532 -138 -171 -141
-177 -127 -201 17 -32 132 -111 171 -119 36 -7 45 -21 25 -40 -12 -12 -14 -32
-10 -92 4 -63 -2 -112 -37 -286 -51 -254 -70 -417 -70 -593 0 -156 8 -178 78
-223 70 -44 144 -63 195 -50 23 5 43 8 45 6 8 -7 -59 -387 -90 -515 l-30 -125
24 -95 23 -95 140 -52 c94 -35 156 -52 187 -53 46 0 98 -16 98 -30 0 -13 51
-28 140 -44 175 -30 185 -30 227 -2 21 14 47 26 59 26 11 0 47 -20 78 -45 32
-25 66 -45 75 -45 23 0 68 48 75 80 4 14 10 72 15 130 15 160 103 870 121 968
12 64 16 72 39 72 36 0 47 -32 64 -185 82 -738 115 -1007 124 -1015 4 -3 60
-19 124 -34 l115 -28 51 26 c73 36 100 38 163 11 60 -25 52 -27 187 30 21 9
91 25 155 36 64 10 142 28 174 40 99 37 164 123 164 217 0 17 -14 88 -30 159
-17 70 -42 180 -56 243 -15 64 -36 128 -48 145 -15 21 -22 49 -24 98 -4 65
-20 104 -281 691 l-276 621 -500 -3 c-668 -5 -917 -9 -937 -17 -29 -11 -42
-69 -58 -270 -11 -137 -8 -126 -135 -485 -19 -52 -37 -105 -40 -117 -8 -29
-17 -29 -70 2 -65 38 -69 46 -56 102 10 40 8 64 -9 148 -23 110 -21 152 11
275 25 93 79 196 127 243 31 30 52 40 106 51 37 8 74 20 82 26 21 18 18 83 -5
104 -17 16 -35 56 -25 56 3 0 23 -12 46 -27 l41 -28 371 -3 c458 -5 548 3 717
57 70 23 137 41 150 41 13 0 44 -10 69 -21 25 -12 68 -27 95 -33 l50 -11 107
-255 c59 -140 116 -283 127 -316 11 -34 35 -93 54 -130 19 -38 49 -104 67
-148 28 -66 47 -93 124 -173 50 -53 174 -168 276 -256 298 -258 368 -332 428
-453 47 -93 56 -133 57 -234 l0 -96 -58 -118 c-32 -65 -55 -121 -53 -124 3 -3
48 -7 99 -10 86 -4 100 -2 150 21 72 33 142 103 173 173 33 76 67 208 105 415
69 380 21 475 -347 695 -476 284 -719 484 -876 718 -33 50 -97 168 -143 263
-77 158 -87 174 -123 192 -21 11 -51 36 -66 56 -33 43 -197 168 -249 190 -46
19 -88 19 -151 0 -67 -20 -127 -19 -270 7 -127 23 -197 25 -573 17 -212 -5
-225 -9 -239 -72 -8 -37 -50 -107 -64 -107 -19 0 -10 27 44 141 101 213 156
418 221 829 47 293 53 320 73 320 31 0 91 -21 107 -36 18 -18 20 -92 4 -126
-6 -13 -27 -35 -48 -49 -35 -25 -40 -34 -80 -170 -56 -191 -56 -189 -40 -189
15 1 33 23 168 205 48 66 100 126 114 132 34 16 63 7 121 -39 37 -29 58 -38
86 -38 30 0 51 -11 107 -56 l70 -55 16 -82 c23 -120 36 -217 47 -352 8 -111
11 -122 35 -142 20 -18 39 -23 79 -23 56 0 196 -28 285 -57 40 -13 58 -25 70
-46 29 -54 143 -185 176 -202 46 -25 69 -16 163 66 59 51 82 78 82 94 0 14
-27 60 -63 107 -215 282 -347 630 -347 910 0 129 19 208 75 325 93 192 236
343 450 475 72 44 186 115 253 157 68 42 151 100 183 130 57 51 229 251 229
266 0 7 -255 340 -419 548 -46 59 -89 107 -95 107 -29 0 -178 -30 -195 -39
-11 -6 -28 -11 -38 -11 -31 0 -200 89 -248 132 -55 48 -78 91 -117 218 -71
226 -209 424 -335 480 -55 24 -101 24 -213 0z m886 -925 c6 -15 -140 -205
-157 -205 -9 0 -29 33 -29 48 0 10 74 103 117 149 25 26 61 30 69 8z m-992
-1729 c1 -96 -2 -178 -7 -182 -4 -4 -20 4 -35 17 -15 14 -46 34 -70 44 -50 22
-62 39 -62 93 0 27 6 45 21 58 12 10 35 43 51 72 34 59 76 98 91 83 6 -6 10
-85 11 -185z"/>
<path d="M3670 9235 c-14 -17 4 -50 75 -145 23 -30 47 -65 54 -78 9 -17 19
-22 39 -20 26 3 27 6 30 68 2 35 8 70 14 77 18 22 35 15 47 -18 14 -41 52 -38
66 7 6 17 16 39 24 48 13 16 21 10 95 -63 45 -45 86 -81 92 -81 26 0 45 -29
55 -85 15 -82 22 -89 67 -65 20 11 44 20 54 20 25 0 31 16 29 82 -1 51 -6 66
-32 99 -19 25 -44 43 -69 50 -22 7 -49 23 -61 35 -17 18 -33 24 -66 24 -24 0
-70 9 -101 19 -108 37 -388 54 -412 26z"/>
<path d="M3358 9210 c-110 -37 -178 -69 -185 -87 -3 -7 6 -23 21 -34 22 -17
26 -29 26 -69 0 -53 12 -69 62 -79 27 -6 35 -14 49 -51 15 -41 20 -45 50 -45
l34 0 0 66 c0 65 1 67 74 178 86 130 87 144 5 149 -33 1 -76 -7 -136 -28z"/>
<path d="M4117 8790 c-19 -15 -40 -20 -84 -20 -98 0 -111 -34 -29 -74 l54 -27
58 28 c61 30 100 72 91 97 -9 22 -59 20 -90 -4z"/>
<path d="M2763 3348 c-6 -7 -16 -42 -22 -78 -7 -36 -40 -130 -73 -210 -176
-422 -183 -449 -193 -720 -12 -344 -34 -593 -66 -730 -11 -46 -49 -154 -85
-239 -36 -85 -80 -200 -97 -255 -18 -56 -51 -134 -75 -173 -24 -40 -41 -76
-38 -82 4 -5 32 -15 64 -21 79 -17 136 -48 210 -115 l63 -57 38 41 c92 100
127 236 141 546 6 142 13 206 28 255 24 79 254 813 350 1115 46 144 99 286
156 412 47 105 86 200 86 211 0 35 -25 45 -92 38 -75 -8 -245 22 -307 53 -46
24 -74 27 -88 9z"/>
<path d="M4860 3269 c-36 -10 -107 -26 -158 -34 -110 -18 -142 -30 -142 -49 0
-8 11 -56 25 -108 13 -51 31 -133 40 -183 19 -108 59 -319 81 -430 9 -44 42
-143 74 -220 182 -437 215 -521 246 -627 62 -218 103 -439 124 -683 13 -143
25 -191 48 -204 10 -5 46 -13 81 -17 45 -5 66 -12 74 -25 13 -21 42 -25 52 -9
15 24 218 169 245 175 69 15 59 43 -72 210 -90 116 -94 123 -163 305 -151 399
-174 491 -195 760 -26 331 -51 600 -62 655 -6 33 -38 128 -70 210 -33 83 -69
178 -79 212 -19 60 -40 84 -71 82 -7 0 -42 -9 -78 -20z"/>
<path d="M5698 786 c-111 -45 -238 -146 -238 -187 0 -21 29 -26 60 -9 20 11
65 18 115 19 21 1 46 15 82 46 28 25 58 45 67 45 20 0 56 35 56 55 0 23 -37
55 -62 55 -13 0 -49 -11 -80 -24z"/>
<path d="M2001 742 c-28 -52 5 -92 77 -92 26 0 56 -6 67 -14 11 -7 58 -21 105
-30 47 -10 93 -20 103 -22 12 -4 17 0 17 14 0 49 -185 149 -294 159 -58 5 -65
4 -75 -15z"/>
<path d="M2573 718 c-56 -60 -97 -137 -98 -188 -1 -31 -9 -57 -24 -78 -28 -40
-119 -110 -191 -148 -55 -29 -56 -29 -230 -29 -172 0 -176 1 -227 27 -29 16
-59 28 -66 28 -8 0 -20 11 -27 25 -17 31 -30 23 -30 -19 0 -63 84 -117 212
-137 184 -28 435 42 548 154 44 44 175 249 205 321 12 27 13 42 5 56 -15 29
-42 25 -77 -12z"/>
<path d="M5098 726 c-23 -17 -23 -53 1 -92 37 -60 316 -284 416 -333 134 -66
286 -76 473 -31 137 33 192 70 192 129 0 32 -11 46 -122 153 -68 64 -130 117
-139 118 -9 0 -61 -21 -115 -47 -55 -26 -144 -65 -199 -87 -89 -37 -100 -44
-103 -68 -3 -23 2 -28 30 -37 18 -6 60 -20 93 -32 47 -18 82 -23 160 -23 98 0
102 0 204 47 112 51 124 51 119 -7 -3 -31 -4 -32 -94 -70 -57 -24 -73 -26
-207 -26 -119 0 -157 4 -213 21 -129 40 -232 128 -285 244 -27 61 -42 75 -78
75 -10 0 -32 18 -50 40 -33 42 -54 48 -83 26z"/>
<path d="M1850 595 c-14 -9 -38 -34 -53 -56 -51 -70 -46 -142 11 -155 15 -4
41 -16 57 -28 26 -18 47 -21 170 -24 l140 -3 85 43 c82 42 85 45 85 78 l0 35
-175 58 c-194 65 -279 78 -320 52z"/>
</g>
</svg>
